<!DOCTYPE svg PUBLIC "-//W3C//DTD SVG 20010904//EN" "http://www.w3.org/TR/2001/REC-SVG-20010904/DTD/svg10.dtd">
<svg version="1.0" xmlns="http://www.w3.org/2000/svg" width="665px" height="642px" viewBox="0 0 6650 6420" preserveAspectRatio="xMidYMid meet">
<g id="layer101" fill="#040303" stroke="none">
 <path d="M0 3210 l0 -3210 3325 0 3325 0 0 3210 0 3210 -3325 0 -3325 0 0 -3210z"/>
 </g>
<g id="layer102" fill="#fcfcfc" stroke="none">
 <path d="M0 3210 l0 -3210 3325 0 3325 0 0 3210 0 3210 -3325 0 -3325 0 0 -3210z m3530 35 c0 -5 6 -16 13 -24 8 -9 20 -32 27 -51 7 -19 19 -42 25 -50 6 -8 17 -29 24 -46 7 -17 41 -87 77 -155 35 -68 67 -134 70 -147 4 -14 -6 -46 -27 -91 l-33 -69 -111 223 c-62 123 -118 238 -125 257 -8 18 -16 35 -20 38 -3 3 -47 89 -98 192 -59 120 -97 185 -105 182 -11 -4 -37 -54 -76 -144 -8 -19 -17 -37 -21 -40 -3 -3 -14 -25 -25 -50 -10 -25 -24 -52 -30 -60 -6 -8 -31 -58 -55 -110 -24 -52 -48 -96 -52 -98 -4 -2 -8 -9 -8 -15 0 -15 -383 -786 -391 -787 -5 0 -488 960 -518 1030 -6 14 -15 32 -20 40 -20 31 -111 220 -111 229 0 12 779 15 797 3 6 -4 22 -33 36 -64 l26 -58 -323 0 c-177 0 -325 -3 -328 -6 -5 -5 116 -262 143 -304 5 -8 14 -26 19 -40 6 -14 28 -59 49 -100 36 -68 79 -156 179 -357 19 -40 41 -74 48 -77 7 -3 20 11 30 32 9 20 156 317 326 660 l309 622 140 -279 c76 -153 139 -282 139 -286z m1040 260 c0 -6 -58 -125 -70 -145 -6 -8 -16 -31 -25 -50 -8 -19 -19 -42 -25 -50 -5 -8 -18 -33 -29 -55 -52 -110 -73 -151 -81 -165 -5 -8 -176 -352 -381 -763 -204 -412 -375 -745 -379 -740 -8 7 -137 264 -161 318 -5 11 -13 27 -19 35 -5 8 -16 31 -25 50 -8 19 -19 42 -25 50 -5 8 -72 142 -149 298 l-139 284 19 41 c11 23 25 54 31 70 7 15 15 27 18 27 3 0 46 -82 95 -181 260 -525 351 -702 360 -700 10 2 67 110 220 422 50 101 93 186 98 187 4 2 7 8 7 14 0 6 99 210 220 453 121 243 220 449 220 458 0 15 -30 17 -324 17 l-323 0 25 53 c13 28 29 58 35 65 8 10 98 12 408 12 220 -1 399 -3 399 -5z"/>
 </g>

</svg>